<?xml version="1.0" encoding="UTF-8"?>
<svg id="Layer_2" xmlns="http://www.w3.org/2000/svg" xmlns:xlink="http://www.w3.org/1999/xlink" viewBox="0 0 130.4 130.4">
  <defs>
    <style>
      .cls-1 {
        opacity: .9;
      }

      .cls-2 {
        fill: #231f20;
      }

      .cls-3 {
        fill: #d1d3d4;
      }

      .cls-3, .cls-4, .cls-5, .cls-6, .cls-7 {
        stroke: #231f20;
        stroke-miterlimit: 10;
      }

      .cls-4 {
        fill: #939598;
      }

      .cls-5 {
        fill: url(#linear-gradient);
      }

      .cls-6 {
        fill: #808285;
      }

      .cls-7 {
        fill: #bcbec0;
      }
    </style>
    <linearGradient id="linear-gradient" x1="65.59" y1="129.42" x2="64.8" y2="-1.09" gradientUnits="userSpaceOnUse">
      <stop offset=".43" stop-color="#c1e7f1"/>
      <stop offset="1" stop-color="#6ac3e2"/>
    </linearGradient>
  </defs>
  <g id="Layer_1-2" data-name="Layer_1">
    <circle class="cls-5" cx="65.2" cy="65.2" r="64.7"/>
    <path class="cls-7" d="M58.01,28.27c.22,4.09,3.73,5.78,8.98,4.97,4.46-.68,9.53-1.7,8.35-4.59-.72-1.76-4.23-6.66-8.26-5.87-4.88.95-9.13,4.35-9.07,5.49Z"/>
    <path class="cls-3" d="M50.2,38.35c1.73,3.78,11.57,8.12,16.88,8.38,6,.29,13.47-2.88,13.27-6.34-.2-3.61-7.47-8.56-13.27-7.79-7.39.98-18.43,2.36-16.88,5.74Z"/>
    <path class="cls-6" d="M83.92,51.12c-1.05,5.57-9.7,9.12-18.27,8.51-9-.64-12.99-2.36-14.79-6.09-2.09-4.33.38-9.24,13.1-8.89,9.02.25,20.72,2.4,19.96,6.47Z"/>
    <path class="cls-7" d="M89.8,68.48c-1.17,6.47-17.72,11.15-29.19,11.15s-22.51-9.04-22.51-15.62c0-6.55,11.04-6.43,22.51-6.64,11.78-.21,30.2,5.55,29.19,11.11Z"/>
    <path class="cls-4" d="M100.09,85.55c.71,8.4-14,13.17-33.36,11.57-21.46-1.76-33.76-1.65-35.4-7.83-1.82-6.86,13.68-16.17,35.4-15.32,18.41.72,32.83,5.2,33.36,11.57Z"/>
    <g class="cls-1">
      <path class="cls-2" d="M17.61,98.79c6.58-1.1,16.39-.94,23.14-1.32,19.32-.53,38.66-.77,57.96.35,3.18.32,6.45.22,9.53,1.22.07.05.15.11.22.17.06.2.36.13.13.89-.39.46-.4.28-.47.36-8.44.66-16.91.31-25.34.51-11.57.12-23.15.18-34.72.7-3.38.18-7.63.37-10.5,1.07.02-.05.04-.11.05-.2.07.02-.23-.58-.26-.47,1.2.21,4.14.33,5.63.39,3.63.14,13.59.37,17.36.45,7.72.17,15.44.3,23.17.59,2.43.12,4.87.16,7.3.51.29.06.59.09.87.29,2.44,3.18-13.37,3.12-15.09,3.33-9.66.4-19.3.32-28.94.78-1.25.06-2.89.22-3.86.42.15-.12.12-.47,0-.57,3.78,1.46,8.19,1.06,12.23,1.24,5.79.05,11.59-.15,17.39.02,2.04.17,4.08-.05,5.98.93.22.19.52.47.4.93-.07.26-.29.37-.46.47-1.67.63-3.41.69-5.14.95-5.75.67-11.54,1.11-17.29,1.77-2.2.32-4.5.41-6.55,1.17-.03.02-.04.03-.02,0,.02-.01.09-.18.02-.29-.09-.14.01,0,.08.01,1.15.49,2.45.46,3.71.54,3.83.11,7.69-.12,11.55-.21,1.94-.04,3.87-.11,5.84.05.64.09,1.41.08,1.98.58.53.51-.11,1.23-.5,1.45-2.51,1.65-5.54,2.16-8.39,2.61-1.87.31-3.66.96-4.93,2.33-.14.15-.38.16-.53.02-.15-.14-.16-.38-.02-.53.7-.73,1.55-1.34,2.48-1.75,3.58-1.41,7.71-1.09,10.93-3.34.17-.11.34-.29.36-.33-.01-.02,0,.12.02.1-.01,0-.08-.06-.17-.09-2.25-.54-4.71-.26-7.04-.26-3.85.11-7.71.35-11.61.26-1.35-.08-2.83-.04-4.12-.64-.19-.12-.32-.16-.47-.44-.27-.91.9-1.08,1.49-1.26,9-1.75,19.37-1.91,27.8-3.49-.04.14,0,.22-.01.2.03.06.01.03-.03,0-.23-.16-.71-.29-1.15-.36-7.16-.83-14.41-.16-21.61-.3-3.93-.09-7.79.05-11.68-.91-.68-.19-2.04-.69-1.41-1.6.4-.37.59-.33.98-.45,3.15-.52,6.33-.48,9.49-.62,7.73-.21,15.45-.28,23.15-.59,3.84-.18,7.71-.34,11.47-.91.99-.19,2.04-.33,2.75-.8,0-.01,0,0,0,0,0,0-.03.05-.02.08-.03.07.15.5.2.44.03.02.06.04.04.03-10.15-1.12-20.46-.77-30.67-1.14-3.8-.08-13.7-.29-17.38-.43-1.77-.1-4.1-.1-5.91-.44-.08-.02-.16-.03-.34-.13-.08.09-.44-.57-.35-.61.07-.84.9-1,1.46-1.17,3.36-.72,6.8-.78,10.21-1,11.58-.54,23.18-.62,34.77-.75,8.32-.17,16.67.05,24.95-.48-.02.06.04-.14-.32.28-.2.71.05.57.07.73.02.03.05.05.08.06-6.68-1.33-13.67-1.19-20.48-1.53-15.42-.42-30.86-.24-46.28.24-6.76.11-16.46.95-23.15.6-.21-.02-.36-.2-.35-.41.01-.18.14-.31.31-.34h0Z"/>
    </g>
  </g>
</svg>